<svg width="816" height="488" viewBox="0 0 816 488" fill="none" xmlns="http://www.w3.org/2000/svg">
<path d="M500.812 238.346C500.812 273.516 494.725 305.981 482.55 335.74C469.925 365.5 452.34 391.426 429.795 413.52C407.25 435.164 380.647 452.072 349.986 464.247C318.874 476.421 285.056 482.508 248.534 482.508C212.011 482.508 178.644 476.646 148.434 464.923C118.224 452.749 92.0715 435.84 69.9775 414.197C47.4325 392.103 30.2983 366.176 18.5749 336.417C6.40063 306.657 0.313477 273.967 0.313477 238.346C0.313477 198.216 8.20423 162.144 23.9856 130.13C39.3163 97.6654 61.1849 71.2878 89.5916 50.9973C117.547 30.2559 150.463 17.6307 188.339 13.1217V114.574C153.619 120.436 127.467 134.639 109.882 157.184C91.8461 179.729 82.8281 206.558 82.8281 237.67C82.8281 265.175 89.3661 289.523 102.442 310.715C115.518 331.457 134.456 347.689 159.256 359.412C183.604 371.136 213.138 376.998 247.857 376.998C283.027 376.998 313.463 371.136 339.164 359.412C364.415 347.238 384.029 330.555 398.007 309.363C411.534 288.17 418.297 263.822 418.297 236.317C418.297 207.008 409.505 181.082 391.92 158.537C374.335 135.992 348.182 121.338 313.463 114.574V11.769C351.339 17.6307 384.48 30.9322 412.886 51.6736C440.842 72.415 462.485 98.7926 477.816 130.807C493.147 162.82 500.812 198.667 500.812 238.346Z" fill="#000333"/>
<path d="M744.439 234.373L525.302 0.355713H386.65L617.962 234.373H744.439ZM514.48 487.327L630.136 360.85L687.964 297.611L711.298 271.572L745.792 234.373H617.962L373.123 487.327H514.48Z" fill="#000333"/>
<rect x="711" width="104" height="487" fill="#000333"/>
</svg>
